<?xml version="1.0" encoding="UTF-8" standalone="no"?>
<!-- Uploaded to: SVG Repo, www.svgrepo.com, Generator: SVG Repo Mixer Tools -->

<svg
   fill="#000000"
   height="800px"
   width="800px"
   version="1.1"
   id="Layer_1"
   viewBox="0 0 512 512"
   xml:space="preserve"
   sodipodi:docname="icon.svg"
   inkscape:version="1.1.2 (0a00cf5339, 2022-02-04)"
   xmlns:inkscape="http://www.inkscape.org/namespaces/inkscape"
   xmlns:sodipodi="http://sodipodi.sourceforge.net/DTD/sodipodi-0.dtd"
   xmlns="http://www.w3.org/2000/svg"
   xmlns:svg="http://www.w3.org/2000/svg"><defs
   id="defs17" /><sodipodi:namedview
   id="namedview15"
   pagecolor="#ffffff"
   bordercolor="#666666"
   borderopacity="1.0"
   inkscape:pageshadow="2"
   inkscape:pageopacity="0.0"
   inkscape:pagecheckerboard="0"
   showgrid="false"
   inkscape:zoom="1.09125"
   inkscape:cx="400"
   inkscape:cy="400"
   inkscape:window-width="3840"
   inkscape:window-height="2092"
   inkscape:window-x="0"
   inkscape:window-y="0"
   inkscape:window-maximized="1"
   inkscape:current-layer="Layer_1" />
<g
   id="g6"
   transform="matrix(0.42037835,0,0,0.42037835,148.38314,148.38294)">
	<g
   id="g4">
		<path
   d="m 472.77,267.844 h 13.402 c 14.242,0 25.828,-11.586 25.828,-25.828 0,-6.879 -2.681,-13.361 -7.578,-18.281 -4.889,-4.867 -11.371,-7.547 -18.25,-7.547 H 471.176 C 495.909,198 512,168.713 512,135.726 512,80.678 467.214,35.892 412.166,35.892 H 25.832 c -14.242,0 -25.828,11.586 -25.828,25.828 0,14.242 11.586,25.828 25.828,25.828 H 39.24 c 11.716,30.943 11.716,65.412 0,96.355 H 25.832 c -14.242,0 -25.828,11.586 -25.828,25.828 0,14.242 11.586,25.828 25.828,25.828 H 40.828 C 16.092,253.75 0,283.039 0,316.026 c 0,26.647 10.385,51.717 29.245,70.592 16.565,16.565 37.932,26.583 60.966,28.771 v 51.033 c 0,3.409 1.792,6.567 4.717,8.314 2.928,1.749 6.556,1.83 9.558,0.214 l 38.596,-20.773 38.596,20.773 c 1.435,0.772 3.013,1.157 4.591,1.157 1.721,0 3.44,-0.458 4.968,-1.371 2.926,-1.749 4.717,-4.906 4.717,-8.314 V 415.851 H 486.17 c 14.242,0 25.828,-11.586 25.828,-25.828 0,-6.901 -2.686,-13.388 -7.578,-18.28 -4.889,-4.867 -11.371,-7.548 -18.25,-7.548 h -13.402 c -3.952,-10.419 -6.618,-21.267 -7.91,-32.36 -0.624,-5.226 -0.94,-10.546 -0.94,-15.809 0,-5.263 0.316,-10.582 0.943,-15.836 1.293,-11.079 3.959,-21.93 7.909,-32.346 z M 25.832,216.189 c -3.56,0 -6.457,-2.897 -6.457,-6.457 0,-3.56 2.897,-6.457 6.457,-6.457 h 383.352 c 24.808,0 47.563,-13.548 59.385,-35.358 10.927,-20.156 10.927,-44.224 0,-64.38 C 456.746,81.727 433.992,68.179 409.184,68.179 H 45.768 25.832 c -3.56,0 -6.457,-2.897 -6.457,-6.457 0,-3.56 2.897,-6.457 6.457,-6.457 h 386.336 c 44.367,0 80.463,36.096 80.463,80.463 0,44.35 -36.069,80.435 -80.413,80.462 H 25.832 Z M 164.459,143 H 67.211 c 0.226,-4.845 0.226,-9.697 0,-14.541 h 47.955 c 5.349,0 9.685,-4.337 9.685,-9.685 0,-5.349 -4.337,-9.685 -9.685,-9.685 H 65.084 C 63.825,101.816 62.075,94.614 59.776,87.551 h 349.408 c 17.693,0 33.924,9.664 42.355,25.218 7.794,14.376 7.794,31.541 0,45.918 -8.432,15.555 -24.662,25.218 -42.355,25.218 H 59.776 c 2.297,-7.061 4.049,-14.262 5.308,-21.534 h 99.376 c 5.349,0 9.685,-4.336 9.685,-9.685 0,-5.35 -4.337,-9.686 -9.686,-9.686 z m 12.127,307.21 -28.91,-15.561 c -1.433,-0.771 -3.012,-1.157 -4.591,-1.157 -1.579,0 -3.157,0.386 -4.591,1.157 l -28.91,15.561 V 342.666 h 67.003 V 450.21 Z m 9.685,-126.915 H 99.897 c -5.349,0 -9.685,4.337 -9.685,9.685 v 29.508 c -4.218,-1.144 -8.283,-2.839 -12.045,-5.086 -7.456,-4.427 -13.575,-10.795 -17.7,-18.423 -3.804,-7.019 -5.815,-14.957 -5.815,-22.955 0,-8.009 2.011,-15.946 5.818,-22.96 8.424,-15.557 24.653,-25.222 42.35,-25.222 h 349.396 c -2.299,7.043 -4.08,14.242 -5.345,21.539 h -50.034 c -5.349,0 -9.685,4.337 -9.685,9.685 0,5.349 4.336,9.685 9.685,9.685 h 47.902 c -0.116,2.427 -0.19,4.854 -0.19,7.272 0,2.418 0.074,4.844 0.19,7.269 h -97.194 c -5.349,0 -9.685,4.336 -9.685,9.685 0,5.349 4.337,9.685 9.685,9.685 h 99.326 c 1.267,7.296 3.046,14.49 5.344,21.529 H 195.957 v -21.529 h 31.639 c 5.349,0 9.685,-4.337 9.685,-9.685 0,-5.348 -4.337,-9.685 -9.685,-9.685 h -41.325 z m 299.901,60.271 c 1.721,0 3.349,0.677 4.568,1.889 1.218,1.218 1.889,2.841 1.889,4.568 0,3.56 -2.897,6.457 -6.457,6.457 H 195.957 V 383.566 Z M 102.821,248.473 c -24.815,0 -47.571,13.553 -59.38,35.36 -5.339,9.833 -8.16,20.964 -8.16,32.193 0,11.213 2.82,22.342 8.153,32.178 5.785,10.699 14.376,19.64 24.823,25.843 6.758,4.034 14.222,6.83 21.955,8.302 v 13.54 C 72.362,393.775 55.843,385.82 42.946,372.923 27.744,357.709 19.372,337.501 19.372,316.025 c 0,-44.353 36.07,-80.438 80.418,-80.466 h 312.378 c 0.017,0 0.034,-0.001 0.05,-0.001 h 73.956 c 1.721,0 3.35,0.677 4.552,1.874 1.228,1.233 1.905,2.862 1.905,4.583 0,3.56 -2.897,6.457 -6.457,6.457 H 102.821 Z"
   id="path2" />
	</g>
</g>
<g
   id="g12"
   transform="matrix(0.42037835,0,0,0.42037835,148.38314,148.38294)">
	<g
   id="g10">
		<circle
   cx="197.98399"
   cy="152.68201"
   r="9.6850004"
   id="circle8" />
	</g>
</g>
</svg>
